<svg width="12" height="21" viewBox="0 0 12 21" fill="none" xmlns="http://www.w3.org/2000/svg">
<path d="M0.987625 18.9341L9.20912 10.5L0.987625 2.06584C0.840437 1.91515 0.758035 1.71286 0.758035 1.50221C0.758035 1.29156 0.840437 1.08928 0.987625 0.938586C1.05911 0.865622 1.14444 0.807656 1.23862 0.768084C1.33279 0.728513 1.43391 0.70813 1.53606 0.70813C1.63821 0.70813 1.73933 0.728513 1.83351 0.768084C1.92768 0.807656 2.01301 0.865622 2.0845 0.938586L10.8325 9.91102C10.9861 10.0686 11.072 10.2799 11.072 10.5C11.072 10.72 10.9861 10.9313 10.8325 11.0889L2.08619 20.0613C2.01464 20.1348 1.9291 20.1932 1.83462 20.2331C1.74013 20.273 1.63862 20.2935 1.53606 20.2935C1.43351 20.2935 1.33199 20.273 1.2375 20.2331C1.14302 20.1932 1.05748 20.1348 0.985937 20.0613C0.838749 19.9106 0.756348 19.7084 0.756348 19.4977C0.756348 19.2871 0.838749 19.0848 0.985937 18.9341L0.987625 18.9341Z" fill="black"/>
</svg>
